<?xml version="1.0" encoding="UTF-8"?>
<svg xmlns="http://www.w3.org/2000/svg" viewBox="0 0 1100 600" width="100%" height="100%">
    <!-- Define gradients and patterns -->
    <defs>
        <linearGradient id="chamberGradient" x1="0%" y1="100%" x2="0%" y2="0%">
            <stop offset="0%" style="stop-color:#ffcccc;stop-opacity:1" />
            <stop offset="33%" style="stop-color:#ffebcc;stop-opacity:1" />
            <stop offset="66%" style="stop-color:#cce0ff;stop-opacity:1" />
            <stop offset="100%" style="stop-color:#b3d9ff;stop-opacity:1" />
        </linearGradient>
        
        <radialGradient id="fanGradient">
            <stop offset="0%" style="stop-color:#2196f3;stop-opacity:1" />
            <stop offset="100%" style="stop-color:#1976d2;stop-opacity:1" />
        </radialGradient>
        
        <filter id="glow">
            <feGaussianBlur stdDeviation="3" result="coloredBlur"/>
            <feMerge> 
                <feMergeNode in="coloredBlur"/>
                <feMergeNode in="SourceGraphic"/>
            </feMerge>
        </filter>
    </defs>
    
    <!-- Main Chamber -->
    <rect x="250" y="100" width="700" height="350" rx="20"
          fill="url(#chamberGradient)" stroke="#1976d2" stroke-width="3"/>

    <!-- Internal Humidity Display (bottom right inside chamber) -->
    <g transform="translate(880, 430)">
        <text x="0" y="0" text-anchor="end" font-size="11" fill="#333" font-weight="bold">
            Internal Hum: <tspan id="internalHum">--%</tspan>
        </text>
    </g>
    
    <!-- Air inlet holes in chamber (hexagonal - aligned with fans) -->
    <polygon points="470,90 510,90 530,115 510,140 470,140 450,115" fill="#ffffff" stroke="#1976d2" stroke-width="2"/>
    <polygon points="470,410 510,410 530,435 510,460 470,460 450,435" fill="#ffffff" stroke="#1976d2" stroke-width="2"/>
    <polygon points="690,90 730,90 750,115 730,140 690,140 670,115" fill="#ffffff" stroke="#1976d2" stroke-width="2"/>
    <polygon points="690,410 730,410 750,435 730,460 690,460 670,435" fill="#ffffff" stroke="#1976d2" stroke-width="2"/>
    
    <!-- CN² Title Display -->
    <text x="100" y="100" text-anchor="middle" font-size="28" font-weight="bold" fill="#1976d2">
        C<tspan baseline-shift="sub" font-size="20">n</tspan><tspan baseline-shift="super" font-size="20">2</tspan> = <tspan id="cn2TitleValue">0.00e+0</tspan>
    </text>

    <!-- Ambient Conditions Display -->
    <g transform="translate(850, 80)">
        <rect x="0" y="0" width="180" height="60" rx="5" fill="#f5f5f5" stroke="#ccc" stroke-width="1"/>
        <text x="90" y="20" text-anchor="middle" font-size="12" fill="#666" font-weight="bold">Ambient Conditions</text>
        <text x="90" y="40" text-anchor="middle" font-size="11" fill="#333">
            Temp: <tspan id="ambientTemp">--°C</tspan> | Hum: <tspan id="ambientHum">--%</tspan>
        </text>
    </g>
    
    <!-- Fans and Hot Plates (outside chamber) -->
    <!-- Fan 4 (Top Left - Outside) -->
    <g id="fan4" transform="translate(490, 40)">
        <circle cx="0" cy="0" r="25" fill="url(#fanGradient)" stroke="#333" stroke-width="2"/>
        <g class="fan-blade fan-off" transform="translate(0, 0)">
            <!-- Properly centered 4-point star -->
            <path d="M 0,-20 L 7,-7 L 20,0 L 7,7 L 0,20 L -7,7 L -20,0 L -7,-7 Z" 
                  fill="#fff" opacity="0.9"/>
            <path d="M 0,-20 L -7,-7 L -20,0 L -7,7 L 0,20 L 7,7 L 20,0 L 7,-7 Z" 
                  fill="#fff" opacity="0.9"/>
            <path d="M 0,-20 L 7,7 L 20,0 L 7,-7 L 0,20 L -7,-7 L -20,0 L -7,7 Z" 
                  fill="#fff" opacity="0.9"/>
            <path d="M 0,-20 L -7,7 L -20,0 L -7,-7 L 0,20 L 7,-7 L 20,0 L 7,7 Z" 
                  fill="#fff" opacity="0.9"/>
        </g>
        <text x="50" y="10" text-anchor="middle" font-size="12" fill="#333">F4</text>
        
        <!-- Fan 4 Controls -->
        <g id="fan4-controls" transform="translate(-80, -10)">
            <!-- Speed Slider -->
            <g id="fan4-slider" class="fan-slider" style="cursor: pointer;">
                <rect x="0" y="-30" width="40" height="80" rx="5" fill="#f8f9fa" stroke="#dee2e6" stroke-width="1"/>
                <line x1="20" y1="-20" x2="20" y2="40" stroke="#ccc" stroke-width="2"/>
                <circle id="fan4-slider-knob" cx="20" cy="10" r="6" fill="#007bff" stroke="#0056b3" stroke-width="1"/>
                <text x="20" y="55" text-anchor="middle" font-size="9" fill="#666">Speed</text>
            </g>
        </g>
    </g>
    
    <!-- Fan 2 (Top Right - Outside) -->
    <g id="fan2" transform="translate(710, 40)">
        <circle cx="0" cy="0" r="25" fill="url(#fanGradient)" stroke="#333" stroke-width="2"/>
        <g class="fan-blade fan-off" transform="translate(0, 0)">
            <!-- Properly centered 4-point star -->
            <path d="M 0,-20 L 7,-7 L 20,0 L 7,7 L 0,20 L -7,7 L -20,0 L -7,-7 Z" 
                  fill="#fff" opacity="0.9"/>
            <path d="M 0,-20 L -7,-7 L -20,0 L -7,7 L 0,20 L 7,7 L 20,0 L 7,-7 Z" 
                  fill="#fff" opacity="0.9"/>
            <path d="M 0,-20 L 7,7 L 20,0 L 7,-7 L 0,20 L -7,-7 L -20,0 L -7,7 Z" 
                  fill="#fff" opacity="0.9"/>
            <path d="M 0,-20 L -7,7 L -20,0 L -7,-7 L 0,20 L 7,-7 L 20,0 L 7,7 Z" 
                  fill="#fff" opacity="0.9"/>
        </g>
        <text x="-50" y="10" text-anchor="middle" font-size="12" fill="#333">F2</text>
        
        <!-- Fan 2 Controls -->
        <g id="fan2-controls" transform="translate(40, -10)">
            <!-- Speed Slider -->
            <g id="fan2-slider" class="fan-slider" style="cursor: pointer;">
                <rect x="0" y="-30" width="40" height="80" rx="5" fill="#f8f9fa" stroke="#dee2e6" stroke-width="1"/>
                <line x1="20" y1="-20" x2="20" y2="40" stroke="#ccc" stroke-width="2"/>
                <circle id="fan2-slider-knob" cx="20" cy="10" r="6" fill="#007bff" stroke="#0056b3" stroke-width="1"/>
                <text x="20" y="55" text-anchor="middle" font-size="9" fill="#666">Speed</text>
            </g>
        </g>
    </g>
    
    <!-- Fan 3 (Bottom Left - Outside) -->
    <g id="fan3" transform="translate(490, 540)">
        <circle cx="0" cy="0" r="25" fill="url(#fanGradient)" stroke="#333" stroke-width="2"/>
        <g class="fan-blade fan-off" transform="translate(0, 0)">
            <!-- Properly centered 4-point star -->
            <path d="M 0,-20 L 7,-7 L 20,0 L 7,7 L 0,20 L -7,7 L -20,0 L -7,-7 Z" 
                  fill="#fff" opacity="0.9"/>
            <path d="M 0,-20 L -7,-7 L -20,0 L -7,7 L 0,20 L 7,7 L 20,0 L 7,-7 Z" 
                  fill="#fff" opacity="0.9"/>
            <path d="M 0,-20 L 7,7 L 20,0 L 7,-7 L 0,20 L -7,-7 L -20,0 L -7,7 Z" 
                  fill="#fff" opacity="0.9"/>
            <path d="M 0,-20 L -7,7 L -20,0 L -7,-7 L 0,20 L 7,-7 L 20,0 L 7,7 Z" 
                  fill="#fff" opacity="0.9"/>
        </g>
        <text x="50" y="10" text-anchor="middle" font-size="12" fill="#333">F3</text>
        
        <!-- Fan 3 Controls -->
        <g id="fan3-controls" transform="translate(-80, 10)">
            <!-- Speed Slider -->
            <g id="fan3-slider" class="fan-slider" style="cursor: pointer;">
                <rect x="0" y="-30" width="40" height="80" rx="5" fill="#f8f9fa" stroke="#dee2e6" stroke-width="1"/>
                <line x1="20" y1="-20" x2="20" y2="40" stroke="#ccc" stroke-width="2"/>
                <circle id="fan3-slider-knob" cx="20" cy="10" r="6" fill="#007bff" stroke="#0056b3" stroke-width="1"/>
                <text x="20" y="55" text-anchor="middle" font-size="9" fill="#666">Speed</text>
            </g>
        </g>
    </g>
    
    <!-- Fan 1 (Bottom Right - Outside) -->
    <g id="fan1" transform="translate(710, 540)">
        <circle cx="0" cy="0" r="25" fill="url(#fanGradient)" stroke="#333" stroke-width="2"/>
        <g class="fan-blade fan-off" transform="translate(0, 0)">
            <!-- Properly centered 4-point star -->
            <path d="M 0,-20 L 7,-7 L 20,0 L 7,7 L 0,20 L -7,7 L -20,0 L -7,-7 Z" 
                  fill="#fff" opacity="0.9"/>
            <path d="M 0,-20 L -7,-7 L -20,0 L -7,7 L 0,20 L 7,7 L 20,0 L 7,-7 Z" 
                  fill="#fff" opacity="0.9"/>
            <path d="M 0,-20 L 7,7 L 20,0 L 7,-7 L 0,20 L -7,-7 L -20,0 L -7,7 Z" 
                  fill="#fff" opacity="0.9"/>
            <path d="M 0,-20 L -7,7 L -20,0 L -7,-7 L 0,20 L 7,-7 L 20,0 L 7,7 Z" 
                  fill="#fff" opacity="0.9"/>
        </g>
        <text x="-50" y="10" text-anchor="middle" font-size="12" fill="#333">F1</text>
        
        <!-- Fan 1 Controls -->
        <g id="fan1-controls" transform="translate(40, 10)">
            <!-- Speed Slider -->
            <g id="fan1-slider" class="fan-slider" style="cursor: pointer;">
                <rect x="0" y="-30" width="40" height="80" rx="5" fill="#f8f9fa" stroke="#dee2e6" stroke-width="1"/>
                <line x1="20" y1="-20" x2="20" y2="40" stroke="#ccc" stroke-width="2"/>
                <circle id="fan1-slider-knob" cx="20" cy="10" r="6" fill="#007bff" stroke="#0056b3" stroke-width="1"/>
                <text x="20" y="55" text-anchor="middle" font-size="9" fill="#666">Speed</text>
            </g>
        </g>
    </g>
    
    <!-- Hot Plate 1 (in front of F1 - Bottom Left) -->
    <rect id="hotplate1" x="680" y="465" width="60" height="45" rx="5"
          fill="#c0c0c0" stroke="#333" stroke-width="2"/>
    <text x="710" y="482" text-anchor="middle" font-size="10" fill="#333">H1</text>
    <!-- Surface Temperature Display -->
    <text id="hotplate1-temp" x="710" y="500" text-anchor="middle" font-size="14" fill="#000000" font-weight="bold">--°C</text>

    <!-- Hot Plate 1 Control -->
    <g id="hotplate1-controls" transform="translate(760, 475)">
        <!-- On/Off Switch -->
        <g id="hotplate1-switch" class="hotplate-switch" style="cursor: pointer;">
            <rect x="0" y="0" width="40" height="20" rx="10" fill="#ddd" stroke="#999" stroke-width="1"/>
            <circle id="hotplate1-switch-knob" cx="10" cy="10" r="8" fill="#fff" stroke="#999" stroke-width="1"/>
            <text x="20" y="35" text-anchor="middle" font-size="10" fill="#666">ON/OFF</text>
        </g>
    </g>   
    
    <!-- Hot Plate 2 (in front of F3 - Bottom Right) -->
    <rect id="hotplate2" x="460" y="465" width="60" height="45" rx="5"
          fill="#c0c0c0" stroke="#333" stroke-width="2"/>
    <text x="490" y="482" text-anchor="middle" font-size="10" fill="#333">H2</text>
    <!-- Surface Temperature Display -->
    <text id="hotplate2-temp" x="490" y="500" text-anchor="middle" font-size="14" fill="#000000" font-weight="bold">--°C</text>
    
    <!-- Hot Plate 2 Control -->
    <g id="hotplate2-controls" transform="translate(380, 475)">
        <!-- On/Off Switch -->
        <g id="hotplate2-switch" class="hotplate-switch" style="cursor: pointer;">
            <rect x="0" y="0" width="40" height="20" rx="10" fill="#ddd" stroke="#999" stroke-width="1"/>
            <circle id="hotplate2-switch-knob" cx="10" cy="10" r="8" fill="#fff" stroke="#999" stroke-width="1"/>
            <text x="20" y="35" text-anchor="middle" font-size="10" fill="#666">ON/OFF</text>
        </g>
    </g>

    <!-- Temperature Sensors - 4 Columns (1, 5, 5, 1) -->
    <!-- Column 1: 1 sensor (T11) - close to laser path on left -->
    <g id="sensor11" transform="translate(375, 255)">
        <circle cx="0" cy="0" r="10" class="sensor-circle sensor-normal" stroke="#333" stroke-width="2"/>
        <text x="0" y="4" text-anchor="middle" font-size="10" fill="#fff" font-weight="bold">T11</text>
        <text x="0" y="-20" text-anchor="middle" class="temperature-display" id="temp11">--°C</text>
    </g>

    <!-- Column 2: 5 sensors (T7, T9, T10, T8, T6) - equal separation -->
    <g id="sensor7" transform="translate(490, 150)">
        <circle cx="0" cy="0" r="10" class="sensor-circle sensor-normal" stroke="#333" stroke-width="2"/>
        <text x="0" y="4" text-anchor="middle" font-size="10" fill="#fff" font-weight="bold">T7</text>
        <text x="0" y="-20" text-anchor="middle" class="temperature-display" id="temp7">--°C</text>
    </g>

    <g id="sensor9" transform="translate(490, 217)">
        <circle cx="0" cy="0" r="10" class="sensor-circle sensor-normal" stroke="#333" stroke-width="2"/>
        <text x="0" y="4" text-anchor="middle" font-size="10" fill="#fff" font-weight="bold">T9</text>
        <text x="0" y="-20" text-anchor="middle" class="temperature-display" id="temp9">--°C</text>
    </g>

    <g id="sensor10" transform="translate(490, 284)">
        <circle cx="0" cy="0" r="10" class="sensor-circle sensor-normal" stroke="#333" stroke-width="2"/>
        <text x="0" y="4" text-anchor="middle" font-size="10" fill="#fff" font-weight="bold">T10</text>
        <text x="0" y="-20" text-anchor="middle" class="temperature-display" id="temp10">--°C</text>
    </g>

    <g id="sensor8" transform="translate(490, 351)">
        <circle cx="0" cy="0" r="10" class="sensor-circle sensor-normal" stroke="#333" stroke-width="2"/>
        <text x="0" y="4" text-anchor="middle" font-size="10" fill="#fff" font-weight="bold">T8</text>
        <text x="0" y="-20" text-anchor="middle" class="temperature-display" id="temp8">--°C</text>
    </g>

    <g id="sensor6" transform="translate(490, 418)">
        <circle cx="0" cy="0" r="10" class="sensor-circle sensor-normal" stroke="#333" stroke-width="2"/>
        <text x="0" y="4" text-anchor="middle" font-size="10" fill="#fff" font-weight="bold">T6</text>
        <text x="0" y="-20" text-anchor="middle" class="temperature-display" id="temp6">--°C</text>
    </g>

    <!-- Column 3: 5 sensors (T2, T4, T5, T3, T1) - equal separation -->
    <g id="sensor2" transform="translate(710, 150)">
        <circle cx="0" cy="0" r="10" class="sensor-circle sensor-normal" stroke="#333" stroke-width="2"/>
        <text x="0" y="4" text-anchor="middle" font-size="10" fill="#fff" font-weight="bold">T2</text>
        <text x="0" y="-20" text-anchor="middle" class="temperature-display" id="temp2">--°C</text>
    </g>

    <g id="sensor4" transform="translate(710, 217)">
        <circle cx="0" cy="0" r="10" class="sensor-circle sensor-normal" stroke="#333" stroke-width="2"/>
        <text x="0" y="4" text-anchor="middle" font-size="10" fill="#fff" font-weight="bold">T4</text>
        <text x="0" y="-20" text-anchor="middle" class="temperature-display" id="temp4">--°C</text>
    </g>

    <g id="sensor5" transform="translate(710, 284)">
        <circle cx="0" cy="0" r="10" class="sensor-circle sensor-normal" stroke="#333" stroke-width="2"/>
        <text x="0" y="4" text-anchor="middle" font-size="10" fill="#fff" font-weight="bold">T5</text>
        <text x="0" y="-20" text-anchor="middle" class="temperature-display" id="temp5">--°C</text>
    </g>

    <g id="sensor3" transform="translate(710, 351)">
        <circle cx="0" cy="0" r="10" class="sensor-circle sensor-normal" stroke="#333" stroke-width="2"/>
        <text x="0" y="4" text-anchor="middle" font-size="10" fill="#fff" font-weight="bold">T3</text>
        <text x="0" y="-20" text-anchor="middle" class="temperature-display" id="temp3">--°C</text>
    </g>

    <g id="sensor1" transform="translate(710, 418)">
        <circle cx="0" cy="0" r="10" class="sensor-circle sensor-normal" stroke="#333" stroke-width="2"/>
        <text x="0" y="4" text-anchor="middle" font-size="10" fill="#fff" font-weight="bold">T1</text>
        <text x="0" y="-20" text-anchor="middle" class="temperature-display" id="temp1">--°C</text>
    </g>

    <!-- Column 4: 1 sensor (T12) - close to laser path on right -->
    <g id="sensor12" transform="translate(825, 295)">
        <circle cx="0" cy="0" r="10" class="sensor-circle sensor-normal" stroke="#333" stroke-width="2"/>
        <text x="0" y="4" text-anchor="middle" font-size="10" fill="#fff" font-weight="bold">T12</text>
        <text x="0" y="-20" text-anchor="middle" class="temperature-display" id="temp12">--°C</text>
    </g>

    <!-- Windflow Sensors -->
    <g id="windflow1" transform="translate(660, 355)">
        <circle cx="0" cy="0" r="10" fill="#ff9800" stroke="#333" stroke-width="2"/>
        <text x="0" y="4" text-anchor="middle" font-size="9" fill="#fff" font-weight="bold">WF1</text>
        <text x="0" y="-18" text-anchor="middle" font-size="10" fill="#666" font-weight="bold" id="flow1">-- m/s</text>
    </g>

    <g id="windflow2" transform="translate(660, 185)">
        <circle cx="0" cy="0" r="10" fill="#ff9800" stroke="#333" stroke-width="2"/>
        <text x="0" y="4" text-anchor="middle" font-size="9" fill="#fff" font-weight="bold">WF2</text>
        <text x="0" y="-18" text-anchor="middle" font-size="10" fill="#666" font-weight="bold" id="flow2">-- m/s</text>
    </g>

     <g id="windflow3" transform="translate(540, 355)">
        <circle cx="0" cy="0" r="10" fill="#ff9800" stroke="#333" stroke-width="2"/>
        <text x="0" y="4" text-anchor="middle" font-size="9" fill="#fff" font-weight="bold">WF3</text>
        <text x="0" y="-18" text-anchor="middle" font-size="10" fill="#666" font-weight="bold" id="flow3">-- m/s</text>
    </g>

    <g id="windflow4" transform="translate(540, 185)">
        <circle cx="0" cy="0" r="10" fill="#ff9800" stroke="#333" stroke-width="2"/>
        <text x="0" y="4" text-anchor="middle" font-size="9" fill="#fff" font-weight="bold">WF4</text>
        <text x="0" y="-18" text-anchor="middle" font-size="10" fill="#666" font-weight="bold" id="flow4">-- m/s</text>
    </g>
        
    <!-- Flow arrows (indicating air movement) -->
    <defs>
        <marker id="arrowhead" markerWidth="10" markerHeight="7" refX="9" refY="3.5" orient="auto">
            <polygon points="0 0, 10 3.5, 0 7" fill="#2196f3" opacity="0.6"/>
        </marker>
    </defs>
    
    <!-- Air flow indicators (temperature-based colors) -->
    <!-- 5 arrows from Fan 1 (cold air - blue) -->
    <!-- <path d="M 490,70 L 490,140" stroke="#2196f3" stroke-width="2" fill="none" marker-end="url(#arrowhead)" opacity="0.6"/>
    <path d="M 500,65 L 500,150" stroke="#2196f3" stroke-width="2" fill="none" marker-end="url(#arrowhead)" opacity="0.6"/> -->
    <path d="M 490,70 L 550,275" stroke="#2196f3" stroke-width="2" fill="none" marker-end="url(#arrowhead)" opacity="0.6"/>
    <!-- <path d="M 480,65 L 480,150" stroke="#ff6b6b" stroke-width="2" fill="none" marker-end="url(#arrowhead)" opacity="0.6"/>
    <path d="M 490,75 L 490,160" stroke="#ff6b6b" stroke-width="2" fill="none" marker-end="url(#arrowhead)" opacity="0.6"/> -->

    <!-- 5 arrows from Fan 3 (hot air - red) -->
    <!-- <path d="M 490,515 L 490,460" stroke="#ff6b6b" stroke-width="2" fill="none" marker-end="url(#arrowhead)" opacity="0.6"/>
    <path d="M 500,520 L 500,480" stroke="#ff6b6b" stroke-width="2" fill="none" marker-end="url(#arrowhead)" opacity="0.6"/> -->
    <path d="M 490,515 L 550,275" stroke="#ff6b6b" stroke-width="2" fill="none" marker-end="url(#arrowhead)" opacity="0.6"/>
    <!-- <path d="M 480,520 L 480,480" stroke="#2196f3" stroke-width="2" fill="none" marker-end="url(#arrowhead)" opacity="0.6"/>
    <path d="M 490,510 L 490,470" stroke="#2196f3" stroke-width="2" fill="none" marker-end="url(#arrowhead)" opacity="0.6"/> -->

    <!-- 5 arrows from Fan 2 (cold air - blue) -->
    <!-- <path d="M 710,70 L 710,140" stroke="#2196f3" stroke-width="2" fill="none" marker-end="url(#arrowhead)" opacity="0.6"/>
    <path d="M 700,65 L 700,150" stroke="#2196f3" stroke-width="2" fill="none" marker-end="url(#arrowhead)" opacity="0.6"/> -->
    <path d="M 710,70 L 650,275" stroke="#2196f3" stroke-width="2" fill="none" marker-end="url(#arrowhead)" opacity="0.6"/>
    <!-- <path d="M 720,65 L 720,150" stroke="#ff6b6b" stroke-width="2" fill="none" marker-end="url(#arrowhead)" opacity="0.6"/>
    <path d="M 710,75 L 710,160" stroke="#ff6b6b" stroke-width="2" fill="none" marker-end="url(#arrowhead)" opacity="0.6"/> -->

    <!-- 5 arrows from Fan 4 (hot air - red) -->
    <!-- <path d="M 710,515 L 710,460" stroke="#ff6b6b" stroke-width="2" fill="none" marker-end="url(#arrowhead)" opacity="0.6"/>
    <path d="M 700,520 L 700,480" stroke="#ff6b6b" stroke-width="2" fill="none" marker-end="url(#arrowhead)" opacity="0.6"/> -->
    <path d="M 710,515 L 650,275" stroke="#ff6b6b" stroke-width="2" fill="none" marker-end="url(#arrowhead)" opacity="0.6"/>
    <!-- <path d="M 720,520 L 720,480" stroke="#2196f3" stroke-width="2" fill="none" marker-end="url(#arrowhead)" opacity="0.6"/>
    <path d="M 710,510 L 710,470" stroke="#2196f3" stroke-width="2" fill="none" marker-end="url(#arrowhead)" opacity="0.6"/> -->
    
    <!-- Optical Measurement System -->
    <!-- Laser Source (left side) -->
    <g id="laserSource" transform="translate(80, 255)">
        <rect x="0" y="0" width="60" height="40" rx="5" fill="#333" stroke="#000" stroke-width="2"/>
        <circle cx="50" cy="20" r="8" fill="#ff0000" stroke="#cc0000" stroke-width="1"/>
        <text x="30" y="-10" text-anchor="middle" font-size="12" fill="#333" font-weight="bold">Laser</text>
        <!-- Laser emission point -->
        <circle cx="60" cy="20" r="3" fill="#ff0000"/>
    </g>
    
    <!-- Laser Beam Path -->
    <defs>
        <linearGradient id="laserGradient" x1="0%" y1="0%" x2="100%" y2="0%">
            <stop offset="0%" style="stop-color:#ff0000;stop-opacity:0.8" />
            <stop offset="50%" style="stop-color:#ff0000;stop-opacity:0.4" />
            <stop offset="100%" style="stop-color:#ff0000;stop-opacity:0.8" />
        </linearGradient>
        <filter id="laserGlow">
            <feGaussianBlur stdDeviation="2" result="coloredBlur"/>
            <feMerge> 
                <feMergeNode in="coloredBlur"/>
                <feMergeNode in="SourceGraphic"/>
            </feMerge>
        </filter>
    </defs>
    
    <!-- Main laser beam through chamber center -->
    <line x1="140" y1="275" x2="920" y2="275" stroke="url(#laserGradient)" stroke-width="3" filter="url(#laserGlow)" opacity="0.8"/>

    <!-- Laser beam segments (for visual effect) -->
    <line x1="140" y1="275" x2="350" y2="275" stroke="#ff0000" stroke-width="2" opacity="0.6"/>
    <line x1="950" y1="275" x2="920" y2="275" stroke="#ff0000" stroke-width="2" opacity="0.6"/>
    
    <!-- Optical line from end of rectangle to camera -->
    <line x1="950" y1="275" x2="1050" y2="275" stroke="#ff0000" stroke-width="2" opacity="0.6" stroke-dasharray="5,3"/>

    <!-- Beam deviation indicator (subtle wavy line in chamber) -->
    <path d="M 350,275 Q 380,273 410,277 T 470,273 T 500,277 T 530,273 T 560,277 T 590,273 T 620,277 T 650,273 T 680,277 T 710,273 T 740,277 T 770,273 T 800,277 T 830,273 T 860,277 T 890,273 T 920,277 T 950,275"
          stroke="#ff0000" stroke-width="1.5" fill="none" opacity="0.4" stroke-dasharray="2,1"/>

    <!-- Camera (right side) -->
    <g id="camera" transform="translate(1050, 245)">
        <!-- Camera body -->
        <rect x="0" y="10" width="50" height="40" rx="3" fill="#2c3e50" stroke="#000" stroke-width="2"/>
        <!-- Camera lens -->
        <circle cx="0" cy="30" r="12" fill="#1a1a1a" stroke="#000" stroke-width="2"/>
        <circle cx="0" cy="30" r="8" fill="#333" stroke="#555" stroke-width="1"/>
        <circle cx="0" cy="30" r="4" fill="#666"/>
        <!-- Camera sensor indicator -->
        <rect x="10" y="20" width="30" height="20" fill="#34495e" stroke="#2c3e50" stroke-width="1"/>
        <text x="25" y="0" text-anchor="middle" font-size="12" fill="#333" font-weight="bold">Camera</text>
        <!-- Lens reflection -->
        <ellipse cx="-2" cy="28" rx="3" ry="2" fill="#fff" opacity="0.3"/>
    </g>
    
    <!-- Optical axis label -->
    <text x="300" y="340" text-anchor="middle" font-size="10" fill="#666" font-style="italic">Optical Axis</text>
</svg>
