<svg viewBox="0 0 1200 600" xmlns="http://www.w3.org/2000/svg">
    <!-- Define gradients and patterns -->
    <defs>
        <linearGradient id="chamberGradient" x1="0%" y1="0%" x2="100%" y2="100%">
            <stop offset="0%" style="stop-color:#e3f2fd;stop-opacity:1" />
            <stop offset="100%" style="stop-color:#bbdefb;stop-opacity:1" />
        </linearGradient>
        
        <radialGradient id="fanGradient">
            <stop offset="0%" style="stop-color:#2196f3;stop-opacity:1" />
            <stop offset="100%" style="stop-color:#1976d2;stop-opacity:1" />
        </radialGradient>
        
        <filter id="glow">
            <feGaussianBlur stdDeviation="3" result="coloredBlur"/>
            <feMerge> 
                <feMergeNode in="coloredBlur"/>
                <feMergeNode in="SourceGraphic"/>
            </feMerge>
        </filter>
    </defs>
    
    <!-- Main Chamber -->
    <rect x="350" y="150" width="300" height="300" rx="20" 
          fill="url(#chamberGradient)" stroke="#1976d2" stroke-width="3"/>
    
    <!-- Air inlet holes in chamber (hexagonal - aligned with fans) -->
    <polygon points="410,140 450,140 470,165 450,190 410,190 390,165" fill="#ffffff" stroke="#1976d2" stroke-width="2"/>
    <polygon points="410,410 450,410 470,435 450,460 410,460 390,435" fill="#ffffff" stroke="#1976d2" stroke-width="2"/>
    <polygon points="560,140 600,140 620,165 600,190 560,190 540,165" fill="#ffffff" stroke="#1976d2" stroke-width="2"/>
    <polygon points="560,410 600,410 620,435 600,460 560,460 540,435" fill="#ffffff" stroke="#1976d2" stroke-width="2"/>
    
    <!-- CN² Title Display -->
    <text x="80" y="80" text-anchor="middle" font-size="28" font-weight="bold" fill="#1976d2">
        C<tspan baseline-shift="sub" font-size="20">n</tspan><tspan baseline-shift="super" font-size="20">2</tspan> = <tspan id="cn2TitleValue">0.00e+0</tspan>
    </text>
    
    <!-- Fans and Hot Plates (outside chamber) -->
    <!-- Fan 1 (Top Left - Outside) -->
    <g id="fan1" transform="translate(430, 40)">
        <circle cx="0" cy="0" r="30" fill="url(#fanGradient)" stroke="#333" stroke-width="2"/>
        <g class="fan-blade fan-off" transform="translate(0, 0)">
            <!-- Properly centered 4-point star -->
            <path d="M 0,-20 L 7,-7 L 20,0 L 7,7 L 0,20 L -7,7 L -20,0 L -7,-7 Z" 
                  fill="#fff" opacity="0.9"/>
            <path d="M 0,-20 L -7,-7 L -20,0 L -7,7 L 0,20 L 7,7 L 20,0 L 7,-7 Z" 
                  fill="#fff" opacity="0.9"/>
            <path d="M 0,-20 L 7,7 L 20,0 L 7,-7 L 0,20 L -7,-7 L -20,0 L -7,7 Z" 
                  fill="#fff" opacity="0.9"/>
            <path d="M 0,-20 L -7,7 L -20,0 L -7,-7 L 0,20 L 7,-7 L 20,0 L 7,7 Z" 
                  fill="#fff" opacity="0.9"/>
        </g>
        <text x="-45" y="10" text-anchor="middle" font-size="12" fill="#333">F1</text>
        
        <!-- Fan 1 Controls -->
        <g id="fan1-controls" transform="translate(-80, -10)">
            <!-- On/Off Switch -->
            <g id="fan1-switch" class="fan-switch" style="cursor: pointer;">
                <rect x="0" y="0" width="40" height="20" rx="10" fill="#ddd" stroke="#999" stroke-width="1"/>
                <circle id="fan1-switch-knob" cx="10" cy="10" r="8" fill="#fff" stroke="#999" stroke-width="1"/>
                <text x="20" y="35" text-anchor="middle" font-size="10" fill="#666">ON/OFF</text>
            </g>
            
            <!-- Speed Slider (Hidden by default, shown on hover) -->
            <g id="fan1-slider" class="fan-slider" opacity="0" style="cursor: pointer;">
                <rect x="0" y="-30" width="40" height="80" rx="5" fill="#f8f9fa" stroke="#dee2e6" stroke-width="1"/>
                <line x1="20" y1="-20" x2="20" y2="40" stroke="#ccc" stroke-width="2"/>
                <circle id="fan1-slider-knob" cx="20" cy="10" r="6" fill="#007bff" stroke="#0056b3" stroke-width="1"/>
                <text x="20" y="55" text-anchor="middle" font-size="9" fill="#666">Speed</text>
            </g>
        </g>
    </g>
    
    <!-- Hot Plate 1 (in front of F1 - Outside) -->
    <rect id="hotplate1" x="390" y="80" width="80" height="60" rx="5" 
          fill="#c0c0c0" stroke="#333" stroke-width="2"/>
    <text x="430" y="115" text-anchor="middle" font-size="14" fill="#333">H1</text>
    
    <!-- Hot Plate 1 Control -->
    <g id="hotplate1-controls" transform="translate(320, 95)">
        <!-- On/Off Switch -->
        <g id="hotplate1-switch" class="hotplate-switch" style="cursor: pointer;">
            <rect x="0" y="0" width="40" height="20" rx="10" fill="#ddd" stroke="#999" stroke-width="1"/>
            <circle id="hotplate1-switch-knob" cx="10" cy="10" r="8" fill="#fff" stroke="#999" stroke-width="1"/>
            <text x="20" y="35" text-anchor="middle" font-size="10" fill="#666">ON/OFF</text>
        </g>
    </g>
    
    <!-- Fan 2 (Top Right - Outside) -->
    <g id="fan2" transform="translate(580, 40)">
        <circle cx="0" cy="0" r="30" fill="url(#fanGradient)" stroke="#333" stroke-width="2"/>
        <g class="fan-blade fan-off" transform="translate(0, 0)">
            <!-- Properly centered 4-point star -->
            <path d="M 0,-20 L 7,-7 L 20,0 L 7,7 L 0,20 L -7,7 L -20,0 L -7,-7 Z" 
                  fill="#fff" opacity="0.9"/>
            <path d="M 0,-20 L -7,-7 L -20,0 L -7,7 L 0,20 L 7,7 L 20,0 L 7,-7 Z" 
                  fill="#fff" opacity="0.9"/>
            <path d="M 0,-20 L 7,7 L 20,0 L 7,-7 L 0,20 L -7,-7 L -20,0 L -7,7 Z" 
                  fill="#fff" opacity="0.9"/>
            <path d="M 0,-20 L -7,7 L -20,0 L -7,-7 L 0,20 L 7,-7 L 20,0 L 7,7 Z" 
                  fill="#fff" opacity="0.9"/>
        </g>
        <text x="50" y="10" text-anchor="middle" font-size="12" fill="#333">F2</text>
        
        <!-- Fan 2 Controls -->
        <g id="fan2-controls" transform="translate(40, -10)">
            <!-- On/Off Switch -->
            <g id="fan2-switch" class="fan-switch" style="cursor: pointer;">
                <rect x="0" y="0" width="40" height="20" rx="10" fill="#ddd" stroke="#999" stroke-width="1"/>
                <circle id="fan2-switch-knob" cx="10" cy="10" r="8" fill="#fff" stroke="#999" stroke-width="1"/>
                <text x="20" y="35" text-anchor="middle" font-size="10" fill="#666">ON/OFF</text>
            </g>
            
            <!-- Speed Slider (Hidden by default, shown on hover) -->
            <g id="fan2-slider" class="fan-slider" opacity="0" style="cursor: pointer;">
                <rect x="0" y="-30" width="40" height="80" rx="5" fill="#f8f9fa" stroke="#dee2e6" stroke-width="1"/>
                <line x1="20" y1="-20" x2="20" y2="40" stroke="#ccc" stroke-width="2"/>
                <circle id="fan2-slider-knob" cx="20" cy="10" r="6" fill="#007bff" stroke="#0056b3" stroke-width="1"/>
                <text x="20" y="55" text-anchor="middle" font-size="9" fill="#666">Speed</text>
            </g>
        </g>
    </g>
    
    <!-- Fan 3 (Bottom Left - Outside) -->
    <g id="fan3" transform="translate(430, 490)">
        <circle cx="0" cy="0" r="30" fill="url(#fanGradient)" stroke="#333" stroke-width="2"/>
        <g class="fan-blade fan-off" transform="translate(0, 0)">
            <!-- Properly centered 4-point star -->
            <path d="M 0,-20 L 7,-7 L 20,0 L 7,7 L 0,20 L -7,7 L -20,0 L -7,-7 Z" 
                  fill="#fff" opacity="0.9"/>
            <path d="M 0,-20 L -7,-7 L -20,0 L -7,7 L 0,20 L 7,7 L 20,0 L 7,-7 Z" 
                  fill="#fff" opacity="0.9"/>
            <path d="M 0,-20 L 7,7 L 20,0 L 7,-7 L 0,20 L -7,-7 L -20,0 L -7,7 Z" 
                  fill="#fff" opacity="0.9"/>
            <path d="M 0,-20 L -7,7 L -20,0 L -7,-7 L 0,20 L 7,-7 L 20,0 L 7,7 Z" 
                  fill="#fff" opacity="0.9"/>
        </g>
        <text x="50" y="10" text-anchor="middle" font-size="12" fill="#333">F3</text>
        
        <!-- Fan 3 Controls -->
        <g id="fan3-controls" transform="translate(-80, -10)">
            <!-- On/Off Switch -->
            <g id="fan3-switch" class="fan-switch" style="cursor: pointer;">
                <rect x="0" y="0" width="40" height="20" rx="10" fill="#ddd" stroke="#999" stroke-width="1"/>
                <circle id="fan3-switch-knob" cx="10" cy="10" r="8" fill="#fff" stroke="#999" stroke-width="1"/>
                <text x="20" y="35" text-anchor="middle" font-size="10" fill="#666">ON/OFF</text>
            </g>
            
            <!-- Speed Slider (Hidden by default, shown on hover) -->
            <g id="fan3-slider" class="fan-slider" opacity="0" style="cursor: pointer;">
                <rect x="0" y="-30" width="40" height="80" rx="5" fill="#f8f9fa" stroke="#dee2e6" stroke-width="1"/>
                <line x1="20" y1="-20" x2="20" y2="40" stroke="#ccc" stroke-width="2"/>
                <circle id="fan3-slider-knob" cx="20" cy="10" r="6" fill="#007bff" stroke="#0056b3" stroke-width="1"/>
                <text x="20" y="55" text-anchor="middle" font-size="9" fill="#666">Speed</text>
            </g>
        </g>
    </g>
    
    <!-- Fan 4 (Bottom Right - Outside) -->
    <g id="fan4" transform="translate(580, 490)">
        <circle cx="0" cy="0" r="30" fill="url(#fanGradient)" stroke="#333" stroke-width="2"/>
        <g class="fan-blade fan-off" transform="translate(0, 0)">
            <!-- Properly centered 4-point star -->
            <path d="M 0,-20 L 7,-7 L 20,0 L 7,7 L 0,20 L -7,7 L -20,0 L -7,-7 Z" 
                  fill="#fff" opacity="0.9"/>
            <path d="M 0,-20 L -7,-7 L -20,0 L -7,7 L 0,20 L 7,7 L 20,0 L 7,-7 Z" 
                  fill="#fff" opacity="0.9"/>
            <path d="M 0,-20 L 7,7 L 20,0 L 7,-7 L 0,20 L -7,-7 L -20,0 L -7,7 Z" 
                  fill="#fff" opacity="0.9"/>
            <path d="M 0,-20 L -7,7 L -20,0 L -7,-7 L 0,20 L 7,-7 L 20,0 L 7,7 Z" 
                  fill="#fff" opacity="0.9"/>
        </g>
        <text x="0" y="50" text-anchor="middle" font-size="12" fill="#333">F4</text>
        
        <!-- Fan 4 Controls -->
        <g id="fan4-controls" transform="translate(40, -10)">
            <!-- On/Off Switch -->
            <g id="fan4-switch" class="fan-switch" style="cursor: pointer;">
                <rect x="0" y="0" width="40" height="20" rx="10" fill="#ddd" stroke="#999" stroke-width="1"/>
                <circle id="fan4-switch-knob" cx="10" cy="10" r="8" fill="#fff" stroke="#999" stroke-width="1"/>
                <text x="20" y="35" text-anchor="middle" font-size="10" fill="#666">ON/OFF</text>
            </g>
            
            <!-- Speed Slider (Hidden by default, shown on hover) -->
            <g id="fan4-slider" class="fan-slider" opacity="0" style="cursor: pointer;">
                <rect x="0" y="-30" width="40" height="80" rx="5" fill="#f8f9fa" stroke="#dee2e6" stroke-width="1"/>
                <line x1="20" y1="-20" x2="20" y2="40" stroke="#ccc" stroke-width="2"/>
                <circle id="fan4-slider-knob" cx="20" cy="10" r="6" fill="#007bff" stroke="#0056b3" stroke-width="1"/>
                <text x="20" y="55" text-anchor="middle" font-size="9" fill="#666">Speed</text>
            </g>
        </g>
    </g>
    
    <!-- Hot Plate 2 (in front of F2 - Outside) -->
    <rect id="hotplate2" x="540" y="80" width="80" height="60" rx="5" 
          fill="#c0c0c0" stroke="#333" stroke-width="2"/>
    <text x="590" y="115" text-anchor="middle" font-size="14" fill="#333">H2</text>
    
    <!-- Hot Plate 2 Control -->
    <g id="hotplate2-controls" transform="translate(630, 95)">
        <!-- On/Off Switch -->
        <g id="hotplate2-switch" class="hotplate-switch" style="cursor: pointer;">
            <rect x="0" y="0" width="40" height="20" rx="10" fill="#ddd" stroke="#999" stroke-width="1"/>
            <circle id="hotplate2-switch-knob" cx="10" cy="10" r="8" fill="#fff" stroke="#999" stroke-width="1"/>
            <text x="20" y="35" text-anchor="middle" font-size="10" fill="#666">ON/OFF</text>
        </g>
    </g>   
    
    <!-- Temperature Sensors -->
    <!-- T1 (Top Left) -->
    <g id="sensor1" transform="translate(400, 225)">
        <circle cx="0" cy="0" r="15" class="sensor-circle sensor-normal" stroke="#333" stroke-width="2"/>
        <text x="0" y="5" text-anchor="middle" font-size="12" fill="#fff" font-weight="bold">T1</text>
        <text x="0" y="-25" text-anchor="middle" class="temperature-display" id="temp1">--°C</text>
    </g>
    
    <!-- T2 (Top Right) -->
    <g id="sensor2" transform="translate(620, 225)">
        <circle cx="0" cy="0" r="15" class="sensor-circle sensor-normal" stroke="#333" stroke-width="2"/>
        <text x="0" y="5" text-anchor="middle" font-size="12" fill="#fff" font-weight="bold">T2</text>
        <text x="0" y="-25" text-anchor="middle" class="temperature-display" id="temp2">--°C</text>
    </g>
    
    <!-- T3 (Center) -->
    <g id="sensor3" transform="translate(500, 300)">
        <circle cx="0" cy="0" r="15" class="sensor-circle sensor-normal" stroke="#333" stroke-width="2"/>
        <text x="0" y="5" text-anchor="middle" font-size="12" fill="#fff" font-weight="bold">T3</text>
        <text x="0" y="-25" text-anchor="middle" class="temperature-display" id="temp3">--°C</text>
    </g>
    
    <!-- T4 (Bottom Left) -->
    <g id="sensor4" transform="translate(400, 385)">
        <circle cx="0" cy="0" r="15" class="sensor-circle sensor-normal" stroke="#333" stroke-width="2"/>
        <text x="0" y="5" text-anchor="middle" font-size="12" fill="#fff" font-weight="bold">T4</text>
        <text x="0" y="-25" text-anchor="middle" class="temperature-display" id="temp4">--°C</text>
    </g>
    
    <!-- T5 (Bottom Right) -->
    <g id="sensor5" transform="translate(620, 385)">
        <circle cx="0" cy="0" r="15" class="sensor-circle sensor-normal" stroke="#333" stroke-width="2"/>
        <text x="0" y="5" text-anchor="middle" font-size="12" fill="#fff" font-weight="bold">T5</text>
        <text x="0" y="-25" text-anchor="middle" class="temperature-display" id="temp5">--°C</text>
    </g>
    
    <!-- Flow arrows (indicating air movement) -->
    <defs>
        <marker id="arrowhead" markerWidth="10" markerHeight="7" refX="9" refY="3.5" orient="auto">
            <polygon points="0 0, 10 3.5, 0 7" fill="#2196f3" opacity="0.6"/>
        </marker>
    </defs>
    
    <!-- Air flow indicators (temperature-based colors) -->
    <!-- 5 arrows from Fan 1 (hot air - red) -->
    <path d="M 430,70 L 430,140" stroke="#ff6b6b" stroke-width="2" fill="none" marker-end="url(#arrowhead)" opacity="0.6"/>
    <path d="M 440,65 L 440,150" stroke="#ff6b6b" stroke-width="2" fill="none" marker-end="url(#arrowhead)" opacity="0.6"/>
    <path d="M 430,70 L 500,300" stroke="#ff6b6b" stroke-width="2" fill="none" marker-end="url(#arrowhead)" opacity="0.6"/>
    <path d="M 420,65 L 420,150" stroke="#ff6b6b" stroke-width="2" fill="none" marker-end="url(#arrowhead)" opacity="0.6"/>
    <path d="M 430,75 L 430,160" stroke="#ff6b6b" stroke-width="2" fill="none" marker-end="url(#arrowhead)" opacity="0.6"/>
    
    <!-- 5 arrows from Fan 3 (cold air - blue) -->
    <path d="M 430,460 L 430,410" stroke="#2196f3" stroke-width="2" fill="none" marker-end="url(#arrowhead)" opacity="0.6"/>
    <path d="M 440,465 L 440,430" stroke="#2196f3" stroke-width="2" fill="none" marker-end="url(#arrowhead)" opacity="0.6"/>
    <path d="M 430,460 L 500,300" stroke="#2196f3" stroke-width="2" fill="none" marker-end="url(#arrowhead)" opacity="0.6"/>
    <path d="M 420,465 L 420,430" stroke="#2196f3" stroke-width="2" fill="none" marker-end="url(#arrowhead)" opacity="0.6"/>
    <path d="M 430,455 L 430,420" stroke="#2196f3" stroke-width="2" fill="none" marker-end="url(#arrowhead)" opacity="0.6"/>
    
    <!-- 5 arrows from Fan 2 (hot air - red) -->
    <path d="M 580,70 L 580,140" stroke="#ff6b6b" stroke-width="2" fill="none" marker-end="url(#arrowhead)" opacity="0.6"/>
    <path d="M 570,65 L 570,150" stroke="#ff6b6b" stroke-width="2" fill="none" marker-end="url(#arrowhead)" opacity="0.6"/>
    <path d="M 580,70 L 500,300" stroke="#ff6b6b" stroke-width="2" fill="none" marker-end="url(#arrowhead)" opacity="0.6"/>
    <path d="M 590,65 L 590,150" stroke="#ff6b6b" stroke-width="2" fill="none" marker-end="url(#arrowhead)" opacity="0.6"/>
    <path d="M 580,75 L 580,160" stroke="#ff6b6b" stroke-width="2" fill="none" marker-end="url(#arrowhead)" opacity="0.6"/>
    
    <!-- 5 arrows from Fan 4 (cold air - blue) -->
    <path d="M 580,460 L 580,410" stroke="#2196f3" stroke-width="2" fill="none" marker-end="url(#arrowhead)" opacity="0.6"/>
    <path d="M 570,465 L 570,430" stroke="#2196f3" stroke-width="2" fill="none" marker-end="url(#arrowhead)" opacity="0.6"/>
    <path d="M 580,460 L 500,300" stroke="#2196f3" stroke-width="2" fill="none" marker-end="url(#arrowhead)" opacity="0.6"/>
    <path d="M 590,465 L 590,430" stroke="#2196f3" stroke-width="2" fill="none" marker-end="url(#arrowhead)" opacity="0.6"/>
    <path d="M 580,455 L 580,420" stroke="#2196f3" stroke-width="2" fill="none" marker-end="url(#arrowhead)" opacity="0.6"/>
    
    <!-- Optical Measurement System -->
    <!-- Laser Source (left side) -->
    <g id="laserSource" transform="translate(80, 280)">
        <rect x="0" y="0" width="60" height="40" rx="5" fill="#333" stroke="#000" stroke-width="2"/>
        <circle cx="50" cy="20" r="8" fill="#ff0000" stroke="#cc0000" stroke-width="1"/>
        <text x="30" y="-10" text-anchor="middle" font-size="12" fill="#333" font-weight="bold">Laser</text>
        <!-- Laser emission point -->
        <circle cx="60" cy="20" r="3" fill="#ff0000"/>
    </g>
    
    <!-- Laser Beam Path -->
    <defs>
        <linearGradient id="laserGradient" x1="0%" y1="0%" x2="100%" y2="0%">
            <stop offset="0%" style="stop-color:#ff0000;stop-opacity:0.8" />
            <stop offset="50%" style="stop-color:#ff0000;stop-opacity:0.4" />
            <stop offset="100%" style="stop-color:#ff0000;stop-opacity:0.8" />
        </linearGradient>
        <filter id="laserGlow">
            <feGaussianBlur stdDeviation="2" result="coloredBlur"/>
            <feMerge> 
                <feMergeNode in="coloredBlur"/>
                <feMergeNode in="SourceGraphic"/>
            </feMerge>
        </filter>
    </defs>
    
    <!-- Main laser beam through chamber center -->
    <line x1="140" y1="300" x2="660" y2="300" stroke="url(#laserGradient)" stroke-width="3" filter="url(#laserGlow)" opacity="0.8"/>
    
    <!-- Laser beam segments (for visual effect) -->
    <line x1="140" y1="300" x2="350" y2="300" stroke="#ff0000" stroke-width="2" opacity="0.6"/>
    <line x1="650" y1="300" x2="660" y2="300" stroke="#ff0000" stroke-width="2" opacity="0.6"/>
    
    <!-- Beam deviation indicator (subtle wavy line in chamber) -->
    <path d="M 350,300 Q 380,298 410,302 T 470,298 T 500,302 T 530,298 T 560,302 T 590,298 T 620,302 T 650,300" 
          stroke="#ff0000" stroke-width="1.5" fill="none" opacity="0.4" stroke-dasharray="2,1"/>
    
    <!-- Camera (right side) -->
    <g id="camera" transform="translate(670, 270)">
        <!-- Camera body -->
        <rect x="0" y="10" width="50" height="40" rx="3" fill="#2c3e50" stroke="#000" stroke-width="2"/>
        <!-- Camera lens -->
        <circle cx="0" cy="30" r="12" fill="#1a1a1a" stroke="#000" stroke-width="2"/>
        <circle cx="0" cy="30" r="8" fill="#333" stroke="#555" stroke-width="1"/>
        <circle cx="0" cy="30" r="4" fill="#666"/>
        <!-- Camera sensor indicator -->
        <rect x="10" y="20" width="30" height="20" fill="#34495e" stroke="#2c3e50" stroke-width="1"/>
        <text x="25" y="0" text-anchor="middle" font-size="12" fill="#333" font-weight="bold">Camera</text>
        <!-- Lens reflection -->
        <ellipse cx="-2" cy="28" rx="3" ry="2" fill="#fff" opacity="0.3"/>
        
        <!-- Video Stream Display -->
        <g id="videoStreamDisplay" transform="translate(60, -150)">
            <!-- Video frame - positioned at y=400 -->
            <rect x="0" y="0" width="400" height="400" rx="2" fill="#000" stroke="#dee2e6" stroke-width="2"/>
            <!-- Video stream element -->
            <image id="svgVideoStream" x="5" y="5" width="390" height="390" href="" preserveAspectRatio="xMidYMid meet"/>
            <!-- Loading indicator -->
            <text id="videoLoadingIndicator" x="200" y="200" text-anchor="middle" font-size="16" fill="#fff" font-weight="bold">Loading Video...</text>
            <!-- Video status indicator -->
            <rect id="videoStatusIndicator" x="10" y="10" width="12" height="12" rx="6" fill="#dc3545"/>
            <!-- Video label -->
            <text x="200" y="395" text-anchor="middle" font-size="14" fill="#fff" font-weight="bold">Live Video Stream</text>
        </g>
    </g>
    
    <!-- Optical axis label -->
    <text x="400" y="330" text-anchor="middle" font-size="10" fill="#666" font-style="italic">Optical Axis</text>
</svg>
